<svg width="11" height="25" viewBox="0 0 11 25" fill="none" xmlns="http://www.w3.org/2000/svg">
<path fill-rule="evenodd" clip-rule="evenodd" d="M2.31579 3.76362C2.31579 5.46036 3.74 6.83338 5.5 6.83338C7.26 6.83338 8.68421 5.46036 8.68421 3.76362C8.68421 2.06687 7.26 0.693848 5.5 0.693848C3.74 0.693848 2.31579 2.06687 2.31579 3.76362ZM4.05263 3.76362C4.05263 3.39355 4.20512 3.03863 4.47656 2.77695C4.74799 2.51528 5.11613 2.36827 5.5 2.36827C5.88387 2.36827 6.25201 2.51528 6.52344 2.77695C6.79488 3.03863 6.94737 3.39355 6.94737 3.76362C6.94737 4.13368 6.79488 4.4886 6.52344 4.75028C6.25201 5.01195 5.88387 5.15896 5.5 5.15896C5.11613 5.15896 4.74799 5.01195 4.47656 4.75028C4.20512 4.4886 4.05263 4.13368 4.05263 3.76362ZM2.9179 24.1245C3.50842 24.6938 4.26105 24.6938 5.5 24.6938C6.73895 24.6938 7.49158 24.6938 8.09368 24.1134C8.68421 23.5441 8.68421 22.8185 8.68421 21.6241V17.985C9.43684 17.9515 9.95789 17.8399 10.4095 17.4157C11 16.8464 11 16.1208 11 14.9264V13.252C11 10.9859 11 9.74687 10.0737 8.85385C9.13579 7.94966 7.83895 7.94966 5.5 7.94966C3.16105 7.94966 1.86421 7.94966 0.937895 8.85385C4.83111e-07 9.74687 0 10.9859 0 13.252V14.9264C0 16.1208 0 16.8352 0.602105 17.4269C1.04211 17.8511 1.56316 17.9627 2.31579 17.985V21.6241C2.31579 22.8185 2.31579 23.5329 2.9179 24.1245ZM2.16526 10.0371C2.57053 9.63524 3.47368 9.62408 5.5 9.62408V9.63524C7.52632 9.63524 8.44105 9.64641 8.84632 10.0483C9.25158 10.439 9.26316 11.3097 9.26316 13.2632V14.9376C9.26316 15.4957 9.26316 16.1766 9.18211 16.2548C9.05474 16.3329 8.39474 16.3329 7.81695 16.3329H7.81579C7.34105 16.3329 6.94737 16.7125 6.94737 17.1701V21.6352C6.94737 22.1934 6.94737 22.8743 6.86632 22.9525C6.61158 23.1087 4.37684 23.0976 4.14526 22.9525C4.05263 22.852 4.05263 22.1711 4.05263 21.6241V17.159C4.05263 16.7013 3.65895 16.3218 3.18421 16.3218H3.18189C2.60295 16.3218 1.94526 16.3218 1.82947 16.2548C1.73684 16.1543 1.73684 15.4734 1.73684 14.9264V13.252C1.73684 11.3097 1.76 10.4278 2.16526 10.0371Z" fill="#11212D"/>
</svg>
