<?xml version="1.0" encoding="utf-8"?>
<!DOCTYPE svg PUBLIC "-//W3C//DTD SVG 1.0//EN" "http://www.w3.org/TR/2001/REC-SVG-20010904/DTD/svg10.dtd">
<svg version="1.0" xmlns="http://www.w3.org/2000/svg" width="20px" height="20px" viewBox="0 0 1024 1024"
     preserveAspectRatio="xMidYMid meet">
  <g fill="#9dc9dc">
    <path
      d="M222 846.5 c-20 -3.1 -39.7 -13.2 -54.8 -27.9 -8.2 -7.9 -17.5 -20.3 -16.5 -21.9 0.3 -0.5 0.1 -0.7 -0.4 -0.4 -2.5 1.6 -13.4 -24.9 -16.4 -39.8 -1.7 -8.2 -2.5 -454.8 -0.9 -473.6 4.2 -48.8 34.8 -86.5 80 -98.6 8.5 -2.3 11.8 -2.6 32.8 -3.1 l23.2 -0.4 0 -34.7 c0 -34.2 0.4 -42.6 2.1 -41.5 0.5 0.3 0.6 -0.2 0.3 -1 -0.9 -2.3 4.4 -11.2 9.4 -15.7 15.2 -14 40.5 -14 56.5 0.2 5.3 4.6 10.2 13.7 11.7 21.8 0.5 2.9 1 20.2 1 38.2 l0 32.9 163.3 -0.2 163.2 -0.3 0.2 -34.5 c0.1 -19 0.4 -36.1 0.7 -38.2 1 -6.2 4.3 -12.6 9.3 -17.9 16.5 -17.7 47.1 -16.5 61.3 2.4 7.1 9.3 7.3 10.9 7.7 51.8 l0.4 36.7 23.7 0.5 c19.6 0.4 25 0.8 31.4 2.5 23.7 6.4 44.9 20.6 59 39.6 11.2 15 18.6 34.1 20.8 53.4 0.8 6.9 1 78.1 0.8 244.2 l-0.3 234.5 -2.2 8 c-2.7 9.6 -5.3 16.6 -9.4 24.8 -13.7 27 -37.8 47.3 -67.4 56.4 l-9 2.8 -286.5 0.2 c-234 0.1 -288.1 -0.1 -295 -1.2z m556.6 -71.8 c11.3 -0.8 22.5 -7.9 29.3 -18.6 6.7 -10.4 6.2 6 6.4 -203.8 l0.2 -190.3 -301.2 0 c-165.7 0 -301.6 0.1 -302 0.3 -0.5 0.1 -0.8 86.2 -0.8 191.2 l0 191 3.2 6.8 c4 8.3 11.6 16.1 19.8 20.2 l6 3 26.5 0.5 c31.8 0.6 503.9 0.3 512.6 -0.3z"/>
  </g>
  <g fill="#90c0d6">
    <path d="M236 847 c0 -0.6 3.5 -1 8.5 -1 5 0 8.5 0.4 8.5 1 0 0.6 -3.5 1 -8.5 1 -5 0 -8.5 -0.4 -8.5 -1z"/>
    <path d="M256 847 c0 -0.5 1.4 -1 3 -1 1.7 0 3 0.5 3 1 0 0.6 -1.3 1 -3 1 -1.6 0 -3 -0.4 -3 -1z"/>
    <path d="M263 847 c0 -0.6 2.8 -1 6.5 -1 3.7 0 6.5 0.4 6.5 1 0 0.6 -2.8 1 -6.5 1 -3.7 0 -6.5 -0.4 -6.5 -1z"/>
    <path d="M279 847 c0 -0.6 2.8 -1 6.5 -1 3.7 0 6.5 0.4 6.5 1 0 0.6 -2.8 1 -6.5 1 -3.7 0 -6.5 -0.4 -6.5 -1z"/>
    <path d="M293 847 c0 -0.6 13.3 -1 38 -1 24.7 0 38 0.4 38 1 0 0.6 -13.3 1 -38 1 -24.7 0 -38 -0.4 -38 -1z"/>
    <path d="M370 847 c0 -0.6 3.5 -1 8.5 -1 5 0 8.5 0.4 8.5 1 0 0.6 -3.5 1 -8.5 1 -5 0 -8.5 -0.4 -8.5 -1z"/>
    <path d="M388 847 c0 -0.5 2 -1 4.5 -1 2.5 0 4.5 0.5 4.5 1 0 0.6 -2 1 -4.5 1 -2.5 0 -4.5 -0.4 -4.5 -1z"/>
    <path d="M399 847 c0 -0.6 3.7 -1 9 -1 5.3 0 9 0.4 9 1 0 0.6 -3.7 1 -9 1 -5.3 0 -9 -0.4 -9 -1z"/>
    <path d="M419 847 c0 -0.5 0.7 -1 1.5 -1 0.8 0 1.5 0.5 1.5 1 0 0.6 -0.7 1 -1.5 1 -0.8 0 -1.5 -0.4 -1.5 -1z"/>
    <path d="M423 847 c0 -0.7 23 -1 67 -1 44 0 67 0.3 67 1 0 0.7 -23 1 -67 1 -44 0 -67 -0.3 -67 -1z"/>
    <path d="M558 847 c0 -0.5 1.6 -1 3.5 -1 1.9 0 3.5 0.5 3.5 1 0 0.6 -1.6 1 -3.5 1 -1.9 0 -3.5 -0.4 -3.5 -1z"/>
    <path d="M566 847 c0 -0.5 1.1 -1 2.5 -1 1.4 0 2.5 0.5 2.5 1 0 0.6 -1.1 1 -2.5 1 -1.4 0 -2.5 -0.4 -2.5 -1z"/>
    <path d="M572 847 c0 -0.7 30 -1 88 -1 58 0 88 0.3 88 1 0 0.7 -30 1 -88 1 -58 0 -88 -0.3 -88 -1z"/>
    <path d="M749 847 c0 -0.5 1.4 -1 3 -1 1.7 0 3 0.5 3 1 0 0.6 -1.3 1 -3 1 -1.6 0 -3 -0.4 -3 -1z"/>
    <path d="M756 847 c0 -0.5 1.1 -1 2.5 -1 1.4 0 2.5 0.5 2.5 1 0 0.6 -1.1 1 -2.5 1 -1.4 0 -2.5 -0.4 -2.5 -1z"/>
    <path d="M762 847 c0 -0.6 3.3 -1 8 -1 4.7 0 8 0.4 8 1 0 0.6 -3.3 1 -8 1 -4.7 0 -8 -0.4 -8 -1z"/>
    <path d="M782 847 c0 -0.5 0.7 -1 1.5 -1 0.8 0 1.5 0.5 1.5 1 0 0.6 -0.7 1 -1.5 1 -0.8 0 -1.5 -0.4 -1.5 -1z"/>
    <path d="M786 847 c0 -0.5 0.9 -1 2 -1 1.1 0 2 0.5 2 1 0 0.6 -0.9 1 -2 1 -1.1 0 -2 -0.4 -2 -1z"/>
    <path d="M213.3 361.3 c0.9 -0.2 2.5 -0.2 3.5 0 0.9 0.3 0.1 0.5 -1.8 0.5 -1.9 0 -2.7 -0.2 -1.7 -0.5z"/>
    <path
      d="M219.7 361.3 c-0.4 -0.3 -0.7 -1.1 -0.7 -1.7 0 -0.7 0.3 -0.7 0.8 0 0.4 0.7 1.8 1.4 3.2 1.7 l2.5 0.4 -2.6 0.2 c-1.4 0 -2.9 -0.2 -3.2 -0.6z"/>
    <path
      d="M686.5 361.3 c1.1 -0.3 2.3 -0.9 2.6 -1.4 0.7 -1.1 3.9 -0.1 3.9 1.2 0 0.5 -1.9 0.8 -4.2 0.8 -2.4 -0.1 -3.4 -0.4 -2.3 -0.6z"/>
    <path
      d="M703.5 361.3 c1.6 -0.3 3.2 -0.8 3.5 -1.2 0.3 -0.4 2.3 -0.2 4.5 0.5 3.9 1.2 3.9 1.2 -3.5 1.2 -4.1 -0.1 -6.2 -0.3 -4.5 -0.5z"/>
    <path d="M804.5 361.5 c2.3 -0.8 8.5 -1 8.5 -0.3 0 0.4 -2.1 0.8 -4.7 0.7 -2.7 0 -4.3 -0.2 -3.8 -0.4z"/>
    <path d="M238.7 181.3 c5.1 -0.2 13.5 -0.2 18.5 0 5.1 0.1 1 0.3 -9.2 0.3 -10.2 0 -14.3 -0.2 -9.3 -0.3z"/>
    <path d="M349.3 181.2 c-0.6 -0.4 6.2 -0.6 15 -0.4 26 0.4 28.7 0.8 6.7 1 -11.3 0.1 -21 -0.2 -21.7 -0.6z"/>
    <path d="M403.3 181.3 c5.4 -0.2 13.9 -0.2 19 0 5.1 0.1 0.7 0.3 -9.8 0.3 -10.4 0 -14.6 -0.2 -9.2 -0.3z"/>
    <path d="M448.3 181.3 c9.3 -0.2 24.1 -0.2 33 0 8.9 0.1 1.4 0.3 -16.8 0.3 -18.1 0 -25.4 -0.2 -16.2 -0.3z"/>
    <path d="M542.3 181.3 c24.7 -0.2 64.7 -0.2 89 0 24.3 0.1 4.2 0.2 -44.8 0.2 -49 0 -68.8 -0.1 -44.2 -0.2z"/>
    <path d="M765.8 181.3 c5.6 -0.2 14.8 -0.2 20.5 0 5.6 0.1 1 0.3 -10.3 0.3 -11.3 0 -15.9 -0.2 -10.2 -0.3z"/>
    <path d="M753 176 c0 -1.1 0.7 -2 1.5 -2 0.8 0 1.5 0.9 1.5 2 0 1.1 -0.7 2 -1.5 2 -0.8 0 -1.5 -0.9 -1.5 -2z"/>
    <path
      d="M347 168.5 c0 -3.3 0.4 -4.5 1.5 -4.5 1.1 0 1.5 1.2 1.5 4.5 0 3.3 -0.4 4.5 -1.5 4.5 -1.1 0 -1.5 -1.2 -1.5 -4.5z"/>
    <path d="M347 160 c0 -2 0.5 -3 1.5 -3 1 0 1.5 1 1.5 3 0 2 -0.5 3 -1.5 3 -1 0 -1.5 -1 -1.5 -3z"/>
    <path d="M347 141 c0 -10.9 0.2 -13 1.5 -13 1.3 0 1.5 2.1 1.5 13 0 10.9 -0.2 13 -1.5 13 -1.3 0 -1.5 -2.1 -1.5 -13z"/>
    <path d="M753 145 c0 -1.1 0.7 -2 1.5 -2 0.8 0 1.5 0.9 1.5 2 0 1.1 -0.7 2 -1.5 2 -0.8 0 -1.5 -0.9 -1.5 -2z"/>
    <path
      d="M753 138.5 c0 -0.8 0.7 -1.5 1.5 -1.5 0.8 0 1.5 0.7 1.5 1.5 0 0.8 -0.7 1.5 -1.5 1.5 -0.8 0 -1.5 -0.7 -1.5 -1.5z"/>
    <path d="M753 130 c0 -0.5 0.7 -1 1.5 -1 0.8 0 1.5 0.5 1.5 1 0 0.6 -0.7 1 -1.5 1 -0.8 0 -1.5 -0.4 -1.5 -1z"/>
  </g>
</svg>
