<svg width="26" height="19" viewBox="0 0 26 19" fill="none" xmlns="http://www.w3.org/2000/svg">
<path d="M1 18H25M22.3405 10.5469C22.634 10.6075 22.9091 10.7121 23.1501 10.8547C23.3911 10.9972 23.5934 11.175 23.7453 11.3778C23.8972 11.5806 23.9958 11.8045 24.0354 12.0366C24.0751 12.2688 24.0551 12.5047 23.9764 12.731C23.8978 12.9572 23.7622 13.1692 23.5772 13.355C23.3923 13.5408 23.1617 13.6967 22.8986 13.8138C22.6355 13.9309 22.3451 14.0069 22.0439 14.0375C21.7427 14.068 21.4366 14.0526 21.1431 13.992L8.05081 11.2899C7.4348 11.1635 6.8543 10.9506 6.33838 10.6619L3.56216 9.11892C3.03285 8.82371 2.60697 8.43176 2.32279 7.97828C2.03861 7.5248 1.90503 7.02401 1.93405 6.52089L2.07676 4.01287C2.0818 3.92191 2.11333 3.83298 2.169 3.75269C2.22467 3.67239 2.30306 3.60277 2.39836 3.549C2.49367 3.49522 2.60345 3.45865 2.71957 3.44201C2.83569 3.42537 2.95518 3.42908 3.06919 3.45286L3.63481 3.56986C3.97918 3.64108 4.29207 3.78293 4.54016 3.98033C4.78824 4.17773 4.96226 4.42329 5.04368 4.69087L5.67416 6.77289C5.74033 6.9909 5.95697 7.1629 6.23719 7.2209L11.4458 8.29691L12.1023 1.56184C12.1109 1.47275 12.1449 1.38622 12.2019 1.30843C12.2589 1.23064 12.3375 1.16352 12.4321 1.11184C12.5266 1.06016 12.6348 1.02521 12.7489 1.00948C12.863 0.993752 12.9802 0.99763 13.0921 1.02084L13.6396 1.13384C14.1105 1.23084 14.4737 1.52184 14.5801 1.88885L16.7751 9.39792L22.3405 10.5469Z" stroke="#11212D" stroke-width="1.5" stroke-linecap="round" stroke-linejoin="round"/>
</svg>
