<svg width="20" height="20" viewBox="0 0 20 20" fill="none" xmlns="http://www.w3.org/2000/svg">
<path d="M12.5 11C12.5 11.663 12.2366 12.2989 11.7678 12.7678C11.2989 13.2366 10.663 13.5 10 13.5C9.33696 13.5 8.70107 13.2366 8.23223 12.7678C7.76339 12.2989 7.5 11.663 7.5 11C7.5 10.337 7.76339 9.70107 8.23223 9.23223C8.70107 8.76339 9.33696 8.5 10 8.5C10.663 8.5 11.2989 8.76339 11.7678 9.23223C12.2366 9.70107 12.5 10.337 12.5 11Z" stroke="#8DBECD" stroke-width="2" stroke-linecap="round" stroke-linejoin="round"/>
<path d="M1.66669 11C3.00002 7.58579 6.11335 5.16663 10 5.16663C13.8867 5.16663 17 7.58579 18.3334 11C17 14.4141 13.8867 16.8333 10 16.8333C6.11335 16.8333 3.00002 14.4141 1.66669 11Z" stroke="#8DBECD" stroke-width="2" stroke-linecap="round" stroke-linejoin="round"/>
</svg>
