<svg width="23" height="14" viewBox="0 0 23 14" fill="none" xmlns="http://www.w3.org/2000/svg">
<path d="M9.6875 0.333252C10.1212 0.333252 10.4997 0.422759 10.8174 0.607666L10.9316 0.678955C11.1477 0.822109 11.3354 1.00305 11.5 1.21704C11.6931 0.966041 11.9187 0.760991 12.1826 0.607666L12.3047 0.542236C12.5958 0.401317 12.9331 0.333252 13.3125 0.333252H18.75C19.4631 0.333252 20.0685 0.577675 20.5576 1.06665L20.7295 1.2561C21.1041 1.70946 21.292 2.25108 21.292 2.87524V5.5813C21.6758 5.79579 21.9709 6.10508 22.1758 6.50806H22.1768C22.3896 6.92542 22.5 7.32625 22.5 7.70825V13.1458C22.5 13.2979 22.4609 13.435 22.3818 13.553L22.2891 13.6643C22.1486 13.8038 21.973 13.8742 21.7705 13.8752C21.618 13.876 21.4804 13.8365 21.3623 13.7571L21.25 13.6633C21.1111 13.5223 21.042 13.3471 21.042 13.1458V11.4583H1.95801V13.1458C1.95801 13.298 1.91895 13.435 1.83984 13.553L1.74707 13.6643C1.60655 13.8038 1.43108 13.8743 1.22852 13.8752C1.07592 13.876 0.938462 13.8366 0.820312 13.7571L0.708984 13.6633C0.569868 13.5222 0.5 13.3472 0.5 13.1458V7.70825C0.5 7.32625 0.610402 6.92542 0.823242 6.50806L0.90918 6.35278C1.10816 6.02434 1.37543 5.7675 1.70801 5.5813V2.87524C1.70801 2.16195 1.95319 1.55584 2.44238 1.06665L2.63086 0.894775C3.08419 0.52026 3.62589 0.333252 4.25 0.333252H9.6875ZM3.04199 6.62524C2.76997 6.62524 2.54097 6.70469 2.34961 6.86353L2.26953 6.93579C2.06277 7.14328 1.9588 7.39823 1.95801 7.70825V10.0002H21.042V7.70825C21.042 7.43629 20.9625 7.20721 20.8037 7.01587L20.7305 6.93677C20.5488 6.75568 20.3309 6.65327 20.0713 6.63013L19.958 6.62524H3.04199ZM13.3125 1.79126C13.0018 1.79126 12.7476 1.8956 12.541 2.10278C12.3342 2.31034 12.2302 2.56509 12.2295 2.87524V5.16626H19.833V2.87524C19.833 2.60322 19.7536 2.37422 19.5947 2.18286L19.5225 2.10278C19.3408 1.92178 19.1227 1.82032 18.8633 1.79712L18.75 1.79126H13.3125ZM4.25 1.79126C3.97804 1.79126 3.74895 1.87077 3.55762 2.02954L3.47852 2.10278C3.27168 2.31034 3.16772 2.56509 3.16699 2.87524V5.16626H10.7705V2.87524C10.7705 2.60322 10.6911 2.37422 10.5322 2.18286L10.46 2.10278C10.2783 1.92178 10.0602 1.82032 9.80078 1.79712L9.6875 1.79126H4.25Z" fill="black" stroke="black" stroke-width="0.25"/>
</svg>
