<?xml version="1.0" ?><svg viewBox="0 0 512 512" xmlns="http://www.w3.org/2000/svg"><g data-name="Capa 19" id="Capa_19"><path d="M217.51,299.45a82.77,82.77,0,1,1,82.78-82.77A82.87,82.87,0,0,1,217.51,299.45Zm0-153.54a70.77,70.77,0,1,0,70.78,70.77A70.85,70.85,0,0,0,217.51,145.91Z"/><path d="M382.24,434.13a6,6,0,0,1-4.24-1.76l-93.88-93.88a138.76,138.76,0,0,1-66.61,17C141,355.5,78.7,293.22,78.7,216.68S141,77.87,217.51,77.87s138.82,62.27,138.82,138.81a138.54,138.54,0,0,1-18.2,68.74l93.41,93.41a6,6,0,0,1,0,8.49l-45.06,45.05A6,6,0,0,1,382.24,434.13ZM285.12,325a6,6,0,0,1,4.25,1.76l92.87,92.87,36.57-36.57-92.46-92.46a6,6,0,0,1-.86-7.4,126.79,126.79,0,1,0-43.42,42.64A6,6,0,0,1,285.12,325Z"/></g></svg>