<svg width="26" height="18" viewBox="0 0 26 18" fill="none" xmlns="http://www.w3.org/2000/svg">
<path d="M1 17H25M21.5297 2.98665C22.0611 2.75737 22.6926 2.69527 23.2853 2.81402C23.8779 2.93278 24.3832 3.22265 24.6899 3.61987C24.9967 4.01709 25.0797 4.48912 24.9209 4.93213C24.762 5.37513 24.3742 5.75281 23.8428 5.98209L12.1049 11.0459C11.5535 11.285 10.9479 11.4461 10.3185 11.5211L6.94032 11.9303C6.29531 12.008 5.63461 11.9646 5.01756 11.8041C4.40052 11.6437 3.84647 11.3712 3.40519 11.011L1.20757 9.2161C1.12792 9.15106 1.06884 9.07349 1.03468 8.98909C1.00052 8.9047 0.992159 8.81566 1.01022 8.72853C1.02827 8.6414 1.07229 8.55841 1.139 8.4857C1.20572 8.41299 1.29344 8.35241 1.39568 8.30844L1.90292 8.08929C2.21169 7.95624 2.56293 7.88824 2.91929 7.89251C3.27564 7.89678 3.62379 7.97316 3.9267 8.11353L6.28259 9.20737C6.52908 9.32179 6.84043 9.32567 7.09211 9.21707L11.7624 7.202L6.04908 2.23706C5.97341 2.17147 5.91804 2.09421 5.88691 2.01079C5.85578 1.92736 5.84966 1.83984 5.86899 1.75444C5.88832 1.66905 5.93262 1.5879 5.99873 1.51677C6.06484 1.44565 6.15114 1.38631 6.25146 1.34298L6.74184 1.13158C7.16476 0.949274 7.68886 0.957031 8.10011 1.15097L16.5403 5.13941L21.5297 2.98665Z" stroke="#11212D" stroke-width="1.5" stroke-linecap="round" stroke-linejoin="round"/>
</svg>
